<svg width="89" height="89" viewBox="0 0 89 89" fill="none" xmlns="http://www.w3.org/2000/svg">
<circle cx="44.5" cy="44.5" r="42.5" fill="#D9D9D9"/>
<path d="M36.4172 24.8763C38.9613 17.0463 50.0387 17.0463 52.5828 24.8763C53.7205 28.3779 56.9837 30.7487 60.6656 30.7487C68.8985 30.7487 72.3216 41.2839 65.661 46.1231C62.6823 48.2873 61.4359 52.1233 62.5737 55.625C65.1178 63.455 56.156 69.9661 49.4954 65.1269C46.5167 62.9627 42.4833 62.9627 39.5046 65.1269C32.844 69.9661 23.8822 63.455 26.4263 55.625C27.5641 52.1233 26.3177 48.2873 23.339 46.1231C16.6784 41.2839 20.1015 30.7487 28.3344 30.7487C32.0163 30.7487 35.2795 28.3779 36.4172 24.8763Z" fill="#A9A9A9"/>
</svg>
