<?xml version="1.0" standalone="no"?>
<!DOCTYPE svg PUBLIC "-//W3C//DTD SVG 20010904//EN"
 "http://www.w3.org/TR/2001/REC-SVG-20010904/DTD/svg10.dtd">
<svg version="1.0" xmlns="http://www.w3.org/2000/svg"
 width="1181.000000pt" height="1280.000000pt" viewBox="0 0 1181.000000 1280.000000"
 preserveAspectRatio="xMidYMid meet">
<metadata>
Created by potrace 1.15, written by Peter Selinger 2001-2017
</metadata>
<g transform="translate(0.000000,1280.000000) scale(0.100000,-0.100000)"
fill="#000000" stroke="none">
<path d="M10085 12745 c-863 -29 -1753 -59 -1977 -66 l-407 -13 -279 -280
c-153 -155 -776 -787 -1383 -1406 -607 -619 -1475 -1503 -1928 -1965 -453
-462 -948 -965 -1100 -1117 -151 -153 -273 -280 -270 -282 5 -5 321 -18 1154
-46 319 -11 702 -24 850 -30 149 -5 354 -12 458 -16 103 -4 187 -7 187 -8 0
-3 -1683 -1679 -2884 -2872 -1286 -1278 -1337 -1329 -1305 -1331 19 -1 315 -7
659 -12 344 -6 731 -14 861 -17 l237 -6 -1061 -1172 c-584 -644 -1246 -1376
-1473 -1626 -357 -394 -432 -483 -403 -473 3 1 1315 732 2915 1624 1600 892
3212 1790 3581 1996 370 206 670 379 667 384 -3 6 -131 7 -317 4 -592 -10
-2309 -27 -2313 -22 -3 3 1209 974 2693 2158 l2698 2154 -1463 5 -1462 5 328
306 c180 168 1256 1173 2392 2234 1136 1060 2067 1932 2068 1936 5 12 50 13
-1723 -46z"/>
</g>
</svg>
